<svg xmlns="http://www.w3.org/2000/svg" viewBox="0 0 484.72 117.74"><defs><style>.cls-1{fill:#52a553;}</style></defs><title>Asset 1</title><g id="Layer_2" data-name="Layer 2"><g id="Layer_1-2" data-name="Layer 1"><path class="cls-1" d="M414.85,104.66c-6.26,6.18-13.09,10.63-21.94,12.12-22.41,3.79-44.29-11.56-46.57-34.44-1.46-14.68-1.09-29.58-1-44.37,0-7.25,12.73-17.18,20.19-16.66,3.86.27,3.77,3,3.76,5.78,0,16.49-.07,33,0,49.47.06,10.22,6.87,18.14,15.76,18.67,10,.59,17.94-7.27,18.07-18.32.14-12.16.7-24.37-.17-36.46-.67-9.28,11.19-18.35,19.82-19.08,3.69-.31,3.67,2.57,3.67,5.16,0,14.82-.12,29.65.09,44.47a47.28,47.28,0,0,0,1.8,12.75c2.32,7.76,8.73,11.86,16.68,11.5A16.56,16.56,0,0,0,460,82.58a38.92,38.92,0,0,0,1.12-8.86c.13-11.82,0-23.65.08-35.48,0-7.64,12.67-18.28,20.06-16.72a5,5,0,0,1,2.95,3.75c.18,18.82,1.28,37.74-.25,56.43C482.62,97.46,473.14,109.5,458,115c-14.55,5.26-28.55,3.24-40.23-8.07A34,34,0,0,0,414.85,104.66Z"/><path class="cls-1" d="M161.33,69.81c1.23,25.23-22.64,47.05-46.08,47.73-25.17.72-49.67-19.2-49.87-47.77-.2-28.26,23.32-48.42,48.23-48.48C140.76,21.22,162.77,45.05,161.33,69.81ZM113.07,43.34c-11.94-1.42-25.5,10-25.66,25.58-.15,15,13.13,25.47,26.32,25.64,12.4.16,25.59-12.07,25.52-26.07C139.17,54.07,125,41.86,113.07,43.34Z"/><path class="cls-1" d="M335.33,69.84c1.24,24.91-22.82,48.5-48.6,47.71-23.46-.72-47.38-19.41-47.33-48.27,0-27.76,22.89-48.08,48.66-48C316.24,21.45,336.92,46.71,335.33,69.84ZM287.52,94.27c15.08,1.29,25.69-14.4,25.81-25,.15-14.18-13.36-26.88-26.47-26.11-14,.83-25.48,11.77-25.52,26S275,95.76,287.52,94.27Z"/><path class="cls-1" d="M.15,61.7c0-12.32-.13-24.65,0-37C.38,8.77,8.65.36,24.59.16c17.32-.22,34.64,0,52-.15,4.26,0,5.21,1.8,4.68,5.47A21.18,21.18,0,0,1,60.65,23.35c-6.16,0-12.32,0-18.49,0-9.41,0-20.71,12.84-19.56,22.11.35,2.8,1.7,3.91,4.64,3.85,8.49-.16,17,.1,25.48-.12,3.88-.1,4.87,1.52,4.72,5.07C57,63.85,47.45,73.33,38,73.34h-5.5c-7.83,0-9.1,1.29-9.13,9.38,0,9.66,0,19.32,0,29,0,5.32-1.11,6.29-6.11,5.59C8.44,116,0,106.45,0,97.67q0-18,0-36Z"/><path class="cls-1" d="M171.2,51.8c0-15.5.14-31-.09-46.49C171,.92,172.74-.18,176.73.12c9.49.7,18.53,10,18.53,19.39q0,46,0,92c0,5.68-1.39,6.8-6.86,5.59a22.1,22.1,0,0,1-17.2-21.29Q171.2,73.79,171.2,51.8Z"/><path class="cls-1" d="M229.47,64.26q0,23.71,0,47.42c0,5.76-1.27,6.66-6.93,5.19-10.52-2.75-16.35-10.3-16.35-21.2q0-44.92,0-89.84c0-5.59.88-6.32,6.45-5.59,9.12,1.2,16.83,9.94,16.83,19.11Q229.48,41.8,229.47,64.26Z"/></g></g></svg>